<svg width="16" height="12" viewBox="0 0 16 12" fill="none" xmlns="http://www.w3.org/2000/svg">
<g clip-path="url(#clip0_35_607)">
<path d="M9.41193 11.302C9.22389 11.114 9.13364 10.8868 9.14116 10.6205C9.14931 10.3541 9.24739 10.1269 9.43543 9.93889L12.0912 7.28312H1.60905C1.34269 7.28312 1.11925 7.19287 0.938755 7.01237C0.758882 6.83249 0.668945 6.60937 0.668945 6.34301C0.668945 6.07664 0.758882 5.85322 0.938755 5.67272C1.11925 5.49284 1.34269 5.40291 1.60905 5.40291H12.0912L9.41193 2.72361C9.22389 2.53559 9.12988 2.31216 9.12988 2.05332C9.12988 1.7951 9.22389 1.57198 9.41193 1.38396C9.59995 1.19594 9.82332 1.10193 10.0822 1.10193C10.3404 1.10193 10.5636 1.19594 10.7516 1.38396L15.0526 5.68494C15.1466 5.77895 15.2133 5.88079 15.2528 5.99047C15.2916 6.10015 15.3111 6.21766 15.3111 6.34301C15.3111 6.46836 15.2916 6.58587 15.2528 6.69555C15.2133 6.80522 15.1466 6.90707 15.0526 7.00109L10.7281 11.3255C10.5557 11.4979 10.3404 11.5841 10.0822 11.5841C9.82332 11.5841 9.59995 11.4901 9.41193 11.302Z" fill="white"/>
</g>
<defs>
<clipPath id="clip0_35_607">
<rect width="15.9818" height="11.2812" fill="white" transform="translate(0.00878906 0.359375)"/>
</clipPath>
</defs>
</svg>
