<svg width="52" height="53" viewBox="0 0 52 53" fill="none" xmlns="http://www.w3.org/2000/svg">
<g clip-path="url(#clip0_49_982)">
<path d="M33.4439 20.0576C32.1139 19.4376 30.6739 18.9876 29.1739 18.7276C29.1607 18.7272 29.1476 18.7297 29.1355 18.7349C29.1234 18.74 29.1126 18.7478 29.1039 18.7576C28.9239 19.0876 28.7139 19.5176 28.5739 19.8476C26.9829 19.6076 25.3649 19.6076 23.7739 19.8476C23.6339 19.5076 23.4239 19.0876 23.2339 18.7576C23.2239 18.7376 23.1939 18.7276 23.1639 18.7276C21.6639 18.9876 20.2339 19.4376 18.8939 20.0576C18.8839 20.0576 18.8739 20.0676 18.8639 20.0776C16.1439 24.1476 15.3939 28.1076 15.7639 32.0276C15.7639 32.0476 15.7739 32.0676 15.7939 32.0776C17.5939 33.3976 19.3239 34.1976 21.0339 34.7276C21.0639 34.7376 21.0939 34.7276 21.1039 34.7076C21.5039 34.1576 21.8639 33.5776 22.1739 32.9676C22.1939 32.9276 22.1739 32.8876 22.1339 32.8776C21.5639 32.6576 21.0239 32.3976 20.4939 32.0976C20.4539 32.0776 20.4539 32.0176 20.4839 31.9876C20.5939 31.9076 20.7039 31.8176 20.8139 31.7376C20.8339 31.7176 20.8639 31.7176 20.8839 31.7276C24.3239 33.2976 28.0339 33.2976 31.4339 31.7276C31.4539 31.7176 31.4839 31.7176 31.5039 31.7376C31.6139 31.8276 31.7239 31.9076 31.8339 31.9976C31.8739 32.0276 31.8739 32.0876 31.8239 32.1076C31.3039 32.4176 30.7539 32.6676 30.1839 32.8876C30.1439 32.8976 30.1339 32.9476 30.1439 32.9776C30.4639 33.5876 30.8239 34.1676 31.2139 34.7176C31.2439 34.7276 31.2739 34.7376 31.3039 34.7276C33.0239 34.1976 34.7539 33.3976 36.5539 32.0776C36.5739 32.0676 36.5839 32.0476 36.5839 32.0276C37.0239 27.4976 35.8539 23.5676 33.4839 20.0776C33.4739 20.0676 33.4639 20.0576 33.4439 20.0576ZM22.6939 29.6376C21.6639 29.6376 20.8039 28.6876 20.8039 27.5176C20.8039 26.3476 21.6439 25.3976 22.6939 25.3976C23.7539 25.3976 24.5939 26.3576 24.5839 27.5176C24.5839 28.6876 23.7439 29.6376 22.6939 29.6376ZM29.6639 29.6376C28.6339 29.6376 27.7739 28.6876 27.7739 27.5176C27.7739 26.3476 28.6139 25.3976 29.6639 25.3976C30.7239 25.3976 31.5639 26.3576 31.5539 27.5176C31.5539 28.6876 30.7239 29.6376 29.6639 29.6376Z" fill="white"/>
<path d="M39.6751 2.08789H12.6751C6.5216 2.08789 1.5332 7.07629 1.5332 13.2298V40.2298C1.5332 46.3833 6.5216 51.3717 12.6751 51.3717H39.6751C45.8286 51.3717 50.817 46.3833 50.817 40.2298V13.2298C50.817 7.07629 45.8286 2.08789 39.6751 2.08789Z" stroke="#49587B" stroke-width="1.71624"/>
</g>
<defs>
<clipPath id="clip0_49_982">
<rect width="52" height="52" fill="white" transform="translate(0 0.5)"/>
</clipPath>
</defs>
</svg>
