<svg width="53" height="53" viewBox="0 0 53 53" fill="none" xmlns="http://www.w3.org/2000/svg">
<g clip-path="url(#clip0_49_968)">
<path d="M24.535 35.5639L24.5115 27.8325H21.4414V24.519H24.5115V22.3101C24.5115 19.3288 26.2221 17.8921 28.6863 17.8921C29.8666 17.8921 30.8811 17.987 31.1767 18.0293V21.1449L29.4677 21.1457C28.1276 21.1457 27.8681 21.833 27.8681 22.8416V24.519H31.6752L30.6518 27.8325H27.8681V35.5639H24.535Z" fill="white"/>
<path d="M40.6754 1.58789H12.4417C6.2882 1.58789 1.2998 6.57629 1.2998 12.7298V40.7264C1.2998 46.8799 6.2882 51.8683 12.4417 51.8683H40.6754C46.8289 51.8683 51.8173 46.8799 51.8173 40.7264V12.7298C51.8173 6.57629 46.8289 1.58789 40.6754 1.58789Z" stroke="#49587B" stroke-width="1.71624"/>
</g>
<defs>
<clipPath id="clip0_49_968">
<rect width="53" height="53" fill="white"/>
</clipPath>
</defs>
</svg>
