<svg width="52" height="53" viewBox="0 0 52 53" fill="none" xmlns="http://www.w3.org/2000/svg">
<g clip-path="url(#clip0_49_972)">
<path d="M29.5427 23.9528C29.9735 23.9528 30.3227 23.5787 30.3227 23.1173C30.3227 22.6558 29.9735 22.2817 29.5427 22.2817C29.112 22.2817 28.7627 22.6558 28.7627 23.1173C28.7627 23.5787 29.112 23.9528 29.5427 23.9528Z" fill="white"/>
<path fill-rule="evenodd" clip-rule="evenodd" d="M22.9248 26.6928C22.9248 28.6129 24.3825 30.1743 26.1748 30.1743C27.9672 30.1743 29.4248 28.6129 29.4248 26.6928C29.4248 24.7728 27.9672 23.2114 26.1748 23.2114C24.3825 23.2114 22.9248 24.7728 22.9248 26.6928ZM24.5498 26.6928C24.5498 25.7328 25.2787 24.9521 26.1748 24.9521C27.071 24.9521 27.7998 25.7328 27.7998 26.6928C27.7998 27.6528 27.071 28.4336 26.1748 28.4336C25.2787 28.4336 24.5498 27.6528 24.5498 26.6928Z" fill="white"/>
<path fill-rule="evenodd" clip-rule="evenodd" d="M22.9248 33.6557H29.4248C31.0953 33.6557 32.6748 31.9637 32.6748 30.1743V23.2114C32.6748 21.4219 31.0953 19.73 29.4248 19.73H22.9248C21.2543 19.73 19.6748 21.4219 19.6748 23.2114V30.1743C19.6748 31.9637 21.2543 33.6557 22.9248 33.6557ZM21.2998 23.2114C21.2998 22.3976 22.1652 21.4707 22.9248 21.4707H29.4248C30.1845 21.4707 31.0498 22.3976 31.0498 23.2114V30.1743C31.0498 30.9881 30.1845 31.915 29.4248 31.915H22.9248C22.1505 31.915 21.2998 31.0037 21.2998 30.1743V23.2114Z" fill="white"/>
<path d="M39.6751 1.58789H12.6751C6.5216 1.58789 1.5332 6.57629 1.5332 12.7298V40.6555C1.5332 46.809 6.5216 51.7974 12.6751 51.7974H39.6751C45.8286 51.7974 50.817 46.809 50.817 40.6555V12.7298C50.817 6.57629 45.8286 1.58789 39.6751 1.58789Z" stroke="#49587B" stroke-width="1.71624"/>
</g>
<defs>
<clipPath id="clip0_49_972">
<rect width="52" height="53" fill="white"/>
</clipPath>
</defs>
</svg>
