<svg width="51" height="53" viewBox="0 0 51 53" fill="none" xmlns="http://www.w3.org/2000/svg">
<g clip-path="url(#clip0_49_962)">
<path d="M17.7806 21.117C19.1761 21.117 20.3074 19.9052 20.3074 18.4103C20.3074 16.9154 19.1761 15.7036 17.7806 15.7036C16.3851 15.7036 15.2539 16.9154 15.2539 18.4103C15.2539 19.9052 16.3851 21.117 17.7806 21.117Z" fill="white"/>
<path d="M19.8863 22.9214H15.675C15.4425 22.9214 15.2539 23.1235 15.2539 23.3725V36.9061C15.2539 37.1551 15.4425 37.3572 15.675 37.3572H19.8863C20.1188 37.3572 20.3074 37.1551 20.3074 36.9061V23.3725C20.3074 23.1235 20.1188 22.9214 19.8863 22.9214Z" fill="white"/>
<path d="M32.4337 22.2997C30.6338 21.6393 28.3824 22.2194 27.0323 23.2597C26.986 23.0657 26.8209 22.9213 26.6246 22.9213H22.4133C22.1809 22.9213 21.9922 23.1234 21.9922 23.3725V36.906C21.9922 37.1551 22.1809 37.3572 22.4133 37.3572H26.6246C26.8571 37.3572 27.0458 37.1551 27.0458 36.906V27.1799C27.7263 26.5519 28.6031 26.3516 29.3207 26.6783C30.0164 26.9931 30.4148 27.7618 30.4148 28.7859V36.906C30.4148 37.1551 30.6035 37.3572 30.8359 37.3572H35.0472C35.2797 37.3572 35.4684 37.1551 35.4684 36.906V27.8773C35.4204 24.17 33.7923 22.7977 32.4337 22.2997Z" fill="white"/>
<path d="M38.4409 1.47852H12.2796C6.0657 1.47852 1.02832 6.51589 1.02832 12.7298V40.3306C1.02832 46.5445 6.0657 51.5819 12.2796 51.5819H38.4409C44.6548 51.5819 49.6922 46.5445 49.6922 40.3306V12.7298C49.6922 6.51589 44.6548 1.47852 38.4409 1.47852Z" stroke="#49587B" stroke-width="1.49735"/>
</g>
<defs>
<clipPath id="clip0_49_962">
<rect width="51" height="53" fill="white"/>
</clipPath>
</defs>
</svg>
