<svg width="156" height="36" viewBox="0 0 156 36" fill="none" xmlns="http://www.w3.org/2000/svg">
<mask id="mask0_31_195" style="mask-type:luminance" maskUnits="userSpaceOnUse" x="1" y="0" width="154" height="36">
<path d="M154.951 0.692322H1.25879V35.3077H154.951V0.692322Z" fill="white"/>
</mask>
<g mask="url(#mask0_31_195)">
<path d="M1.25879 0.692322V15.248L12.9967 0.692322H1.25879Z" fill="#007AFF"/>
<path d="M1.25879 35.3077V20.7521L12.9967 35.3077H1.25879Z" fill="#007AFF"/>
<path d="M34.9171 0.692261H20.7638L6.95605 17.7402L20.9365 35.3077H34.9171L20.9365 18.0011L34.9171 0.692261Z" fill="#91F8DA"/>
<path d="M34.9166 0.692268H20.7633L9.05273 17.7403L20.936 35.3077H34.9166L20.936 18.0011L34.9166 0.692268Z" fill="#59D6EC"/>
<path d="M34.9155 0.692261H20.7623L12.1963 17.7402L20.9349 35.3077H34.9155L20.9349 18.0011L34.9155 0.692261Z" fill="#4BB3F0"/>
<path d="M34.9171 0.692261H20.7638L15.6924 17.7402L20.9365 35.3077H34.9171L20.9365 18.0011L34.9171 0.692261Z" fill="#007AFF"/>
<path d="M65.1218 4.24441H59.2893L49.9553 15.5413V4.24441H45.1133V31.2641H49.9553V19.2682L59.6551 31.2641H65.4831L54.4586 17.4165L65.1218 4.24441Z" fill="white"/>
<path d="M75.5764 11.2952C72.7839 11.2952 70.3959 12.2898 68.4827 14.2534C67.539 15.1981 66.7931 16.3303 66.2906 17.5806C65.7883 18.8311 65.5399 20.1733 65.5608 21.5254C65.54 22.8775 65.7884 24.2197 66.2909 25.47C66.7932 26.7203 67.5391 27.8525 68.4827 28.7974C70.3959 30.7587 72.7839 31.7556 75.5764 31.7556C78.3689 31.7556 80.7569 30.7587 82.6701 28.7974C83.6137 27.8525 84.3596 26.7203 84.8619 25.47C85.3644 24.2197 85.6128 22.8775 85.592 21.5254C85.6129 20.1733 85.3645 18.8311 84.8622 17.5806C84.3597 16.3303 83.6138 15.1981 82.6701 14.2534C80.7569 12.2898 78.3689 11.2952 75.5764 11.2952ZM79.4391 25.5619C78.4032 26.59 77.0181 27.1648 75.5764 27.1648C74.1347 27.1648 72.7496 26.59 71.7137 25.5619C71.1991 25.0334 70.7948 24.4029 70.5256 23.7089C70.2564 23.0149 70.1281 22.272 70.1483 21.5254C70.1279 20.7784 70.2563 20.0351 70.5255 19.3407C70.7946 18.6463 71.1989 18.0154 71.7137 17.4865C72.7496 16.4584 74.1347 15.8836 75.5764 15.8836C77.0181 15.8836 78.4032 16.4584 79.4391 17.4865C79.9551 18.0148 80.3607 18.6454 80.6309 19.3399C80.9014 20.0343 81.0308 20.778 81.0114 21.5254C81.031 22.2722 80.9019 23.0155 80.6319 23.7095C80.3621 24.4036 79.9569 25.0339 79.4413 25.5619H79.4391Z" fill="white"/>
<path d="M98.856 11.2951C96.3067 11.2951 94.2482 12.1686 92.7212 13.8923V4.24442H88.1406V31.2641H92.7258V29.1304C94.2412 30.8726 96.2999 31.7555 98.8606 31.7555C101.496 31.7555 103.687 30.7865 105.554 28.7927C107.422 26.7988 108.324 24.3857 108.324 21.5254C108.324 18.6649 107.392 16.2193 105.554 14.258C103.716 12.2967 101.492 11.2951 98.856 11.2951ZM94.2958 25.6412C93.7771 25.0989 93.3707 24.4548 93.101 23.7476C92.8311 23.0403 92.7035 22.2844 92.7258 21.5254C92.7258 19.8949 93.2529 18.5136 94.2958 17.4444C95.3496 16.393 96.7619 15.8048 98.2324 15.8048C99.7027 15.8048 101.115 16.393 102.169 17.4444C103.207 18.5089 103.734 19.8809 103.734 21.5207C103.757 22.279 103.629 23.0342 103.36 23.7409C103.091 24.4478 102.686 25.0916 102.169 25.6342C101.104 26.6641 99.6961 27.2379 98.2324 27.2379C96.7686 27.2379 95.3603 26.6641 94.2958 25.6342V25.6412Z" fill="white"/>
<path d="M113.163 4.50068C112.793 4.50043 112.427 4.57546 112.086 4.72142C111.745 4.86737 111.436 5.08133 111.177 5.35086C110.102 6.49221 110.102 8.18093 111.188 9.38051C111.72 9.89923 112.424 10.1915 113.158 10.1981C113.89 10.1928 114.591 9.89532 115.112 9.36886C115.374 9.1086 115.583 8.79756 115.726 8.45383C115.87 8.11011 115.945 7.74057 115.948 7.3667C115.951 6.99281 115.881 6.62206 115.743 6.27599C115.605 5.92994 115.401 5.61546 115.144 5.35086C114.885 5.08168 114.576 4.86791 114.236 4.72196C113.896 4.576 113.531 4.50079 113.163 4.50068Z" fill="white"/>
<path d="M115.454 11.7843H110.869V31.2641H115.454V11.7843Z" fill="white"/>
<path d="M132.922 14.9148V11.7843H118.701V16.2589H126.649L118.333 28.1358V31.2641H133.291V26.7896H124.643L132.922 14.9148Z" fill="white"/>
<path d="M152.028 14.2534C150.115 12.2898 147.728 11.2952 144.935 11.2952C142.142 11.2952 139.756 12.2898 137.841 14.2534C136.897 15.1981 136.151 16.3303 135.649 17.5806C135.147 18.831 134.898 20.1733 134.919 21.5254C134.898 22.8774 135.147 24.2197 135.649 25.47C136.152 26.7203 136.898 27.8525 137.841 28.7974C139.756 30.7587 142.142 31.7556 144.935 31.7556C147.728 31.7556 150.115 30.7587 152.028 28.7974C152.973 27.8529 153.719 26.7207 154.222 25.4703C154.724 24.22 154.972 22.8776 154.95 21.5254C154.972 20.1732 154.724 18.8308 154.222 17.5803C153.719 16.3299 152.973 15.1978 152.028 14.2534ZM148.799 25.5619C147.764 26.59 146.379 27.1648 144.938 27.1648C143.495 27.1648 142.11 26.59 141.075 25.5619C140.56 25.0334 140.155 24.4029 139.887 23.7089C139.617 23.0149 139.489 22.272 139.509 21.5254C139.489 20.7784 139.617 20.0351 139.887 19.3407C140.155 18.6463 140.56 18.0154 141.075 17.4864C142.11 16.4584 143.495 15.8836 144.938 15.8836C146.379 15.8836 147.764 16.4584 148.799 17.4864C149.314 18.0151 149.72 18.6459 149.989 19.3404C150.257 20.0348 150.386 20.7784 150.365 21.5254C150.386 22.272 150.257 23.0151 149.989 23.7092C149.72 24.4033 149.314 25.0338 148.799 25.5619Z" fill="white"/>
</g>
</svg>
