<svg width="759" height="504" viewBox="0 0 759 504" fill="none" xmlns="http://www.w3.org/2000/svg">
<path d="M214.34 249.947C196.074 276.048 188.218 300.022 191.797 318.493C195.37 336.931 210.177 349.032 234.235 353.04C258.301 357.048 290.366 352.743 325.903 340.707C361.435 328.672 398.623 309.524 432.207 285.969C465.791 262.413 494.065 235.648 513.036 209.458C532.012 183.262 540.695 159.004 537.934 140.104C536.554 130.665 532.353 122.791 525.578 116.706C518.8 110.618 509.435 106.307 497.721 104.004C474.283 99.4043 442.661 103.102 407.316 114.602M218.486 207.03C169.801 246.953 136.619 287.557 124.874 321.523C119.003 338.501 118.689 353.24 123.656 365.195C128.622 377.145 138.883 386.351 154.242 392.234C184.979 404.004 234.048 401.664 292.639 385.579C351.219 369.497 415.428 340.744 473.702 304.496C531.976 268.247 580.472 226.894 610.466 187.885C625.462 168.383 635.333 150.115 639.877 133.853C644.42 117.592 643.634 103.353 637.342 91.8784C631.051 80.4033 619.44 72.0305 603.236 67.0127C587.027 62.0021 566.241 60.3507 541.63 62.3151C492.407 66.2484 431.177 84.3673 368.96 113.431M8.60466 465.964C50.5919 538.688 250.522 501.864 455.162 383.715C659.802 265.566 791.656 110.834 749.672 38.1117C707.683 -34.6136 507.754 2.20767 303.113 120.358C98.4734 238.507 -33.3826 393.24 8.60466 465.964Z" stroke="white" stroke-opacity="0.1" stroke-width="1.39463"/>
</svg>
