<svg width="850" height="371" viewBox="0 0 850 371" fill="none" xmlns="http://www.w3.org/2000/svg">
<rect y="0.644531" width="850" height="370" rx="20" fill="white" fill-opacity="0.05"/>
<rect y="0.644531" width="850" height="370" rx="20" fill="url(#paint0_radial_49_774)"/>
<path d="M47.92 71.0045C45.88 71.0045 44.23 70.1545 42.97 68.4545C41.73 66.7545 41.11 64.2845 41.11 61.0445C41.11 57.8045 41.73 55.3645 42.97 53.7245C44.23 52.0645 45.88 51.2345 47.92 51.2345C49.96 51.2345 51.6 52.0645 52.84 53.7245C54.1 55.3645 54.73 57.8045 54.73 61.0445C54.73 64.2845 54.1 66.7545 52.84 68.4545C51.6 70.1545 49.96 71.0045 47.92 71.0045ZM47.92 67.5845C48.42 67.5845 48.87 67.4045 49.27 67.0445C49.67 66.6645 49.98 66.0045 50.2 65.0645C50.44 64.1245 50.56 62.7845 50.56 61.0445C50.56 59.3045 50.44 57.9745 50.2 57.0545C49.98 56.1345 49.67 55.5045 49.27 55.1645C48.87 54.8245 48.42 54.6545 47.92 54.6545C47.44 54.6545 47 54.8245 46.6 55.1645C46.2 55.5045 45.88 56.1345 45.64 57.0545C45.4 57.9745 45.28 59.3045 45.28 61.0445C45.28 62.7845 45.4 64.1245 45.64 65.0645C45.88 66.0045 46.2 66.6645 46.6 67.0445C47 67.4045 47.44 67.5845 47.92 67.5845ZM63.1396 71.0045C61.5996 71.0045 60.2796 70.7545 59.1796 70.2545C58.0996 69.7545 57.2096 69.1045 56.5096 68.3045L58.5496 65.5145C59.1296 66.0745 59.7696 66.5345 60.4696 66.8945C61.1696 67.2545 61.9196 67.4345 62.7196 67.4345C63.6596 67.4345 64.4096 67.2445 64.9696 66.8645C65.5296 66.4645 65.8096 65.9045 65.8096 65.1845C65.8096 64.6245 65.6696 64.1445 65.3896 63.7445C65.1096 63.3245 64.5996 63.0045 63.8596 62.7845C63.1196 62.5645 62.0596 62.4545 60.6796 62.4545V59.3345C62.3996 59.3345 63.5796 59.1045 64.2196 58.6445C64.8596 58.1645 65.1796 57.5445 65.1796 56.7845C65.1796 56.1245 64.9796 55.6145 64.5796 55.2545C64.1796 54.8745 63.5996 54.6845 62.8396 54.6845C62.1596 54.6845 61.5396 54.8345 60.9796 55.1345C60.4396 55.4345 59.8696 55.8445 59.2696 56.3645L57.0496 53.6645C57.9296 52.9045 58.8596 52.3145 59.8396 51.8945C60.8196 51.4545 61.8896 51.2345 63.0496 51.2345C65.0096 51.2345 66.5896 51.6945 67.7896 52.6145C69.0096 53.5145 69.6196 54.7945 69.6196 56.4545C69.6196 57.4345 69.3396 58.2745 68.7796 58.9745C68.2396 59.6745 67.4596 60.2445 66.4396 60.6845V60.8045C67.5396 61.1245 68.4396 61.6745 69.1396 62.4545C69.8596 63.2145 70.2196 64.2145 70.2196 65.4545C70.2196 66.6345 69.8896 67.6445 69.2296 68.4845C68.5896 69.3045 67.7296 69.9345 66.6496 70.3745C65.5896 70.7945 64.4196 71.0045 63.1396 71.0045Z" fill="white" fill-opacity="0.7"/>
<path d="M43.984 211.645V180.253H54.592C56.768 180.253 58.72 180.541 60.448 181.117C62.208 181.693 63.584 182.669 64.576 184.045C65.6 185.389 66.112 187.229 66.112 189.565C66.112 191.965 65.536 193.901 64.384 195.373C63.264 196.845 61.76 197.901 59.872 198.541L67.36 211.645H61.12L54.352 199.357H49.552V211.645H43.984ZM49.552 194.941H54.016C56.16 194.941 57.792 194.493 58.912 193.597C60.064 192.669 60.64 191.325 60.64 189.565C60.64 187.773 60.064 186.525 58.912 185.821C57.792 185.085 56.16 184.717 54.016 184.717H49.552V194.941ZM81.5215 212.221C79.3455 212.221 77.3775 211.741 75.6175 210.781C73.8575 209.789 72.4655 208.381 71.4415 206.557C70.4175 204.701 69.9055 202.477 69.9055 199.885C69.9055 197.325 70.4175 195.117 71.4415 193.261C72.4975 191.405 73.8575 189.981 75.5215 188.989C77.1855 187.997 78.9295 187.501 80.7535 187.501C82.8975 187.501 84.6895 187.981 86.1295 188.941C87.5695 189.869 88.6575 191.181 89.3935 192.877C90.1295 194.541 90.4975 196.477 90.4975 198.685C90.4975 199.837 90.4175 200.733 90.2575 201.373H75.2815C75.5375 203.453 76.2895 205.069 77.5375 206.221C78.7855 207.373 80.3535 207.949 82.2415 207.949C83.2655 207.949 84.2095 207.805 85.0735 207.517C85.9695 207.197 86.8495 206.765 87.7135 206.221L89.5855 209.677C88.4655 210.413 87.2175 211.021 85.8415 211.501C84.4655 211.981 83.0255 212.221 81.5215 212.221ZM75.2335 197.629H85.6975C85.6975 195.805 85.2975 194.381 84.4975 193.357C83.6975 192.301 82.4975 191.773 80.8975 191.773C79.5215 191.773 78.2895 192.285 77.2015 193.309C76.1455 194.301 75.4895 195.741 75.2335 197.629ZM101.05 211.645L92.8416 188.077H98.4576L102.202 200.317C102.522 201.469 102.842 202.637 103.162 203.821C103.514 205.005 103.85 206.205 104.17 207.421H104.362C104.714 206.205 105.05 205.005 105.37 203.821C105.722 202.637 106.058 201.469 106.378 200.317L110.122 188.077H115.45L107.434 211.645H101.05ZM128.902 212.221C126.95 212.221 125.126 211.741 123.43 210.781C121.734 209.789 120.358 208.381 119.302 206.557C118.246 204.701 117.718 202.477 117.718 199.885C117.718 197.261 118.246 195.037 119.302 193.213C120.358 191.357 121.734 189.949 123.43 188.989C125.126 187.997 126.95 187.501 128.902 187.501C130.886 187.501 132.726 187.997 134.422 188.989C136.118 189.949 137.494 191.357 138.55 193.213C139.606 195.037 140.134 197.261 140.134 199.885C140.134 202.477 139.606 204.701 138.55 206.557C137.494 208.381 136.118 209.789 134.422 210.781C132.726 211.741 130.886 212.221 128.902 212.221ZM128.902 207.709C130.63 207.709 131.99 206.989 132.982 205.549C133.974 204.109 134.47 202.221 134.47 199.885C134.47 197.517 133.974 195.613 132.982 194.173C131.99 192.733 130.63 192.013 128.902 192.013C127.174 192.013 125.814 192.733 124.822 194.173C123.862 195.613 123.382 197.517 123.382 199.885C123.382 202.221 123.862 204.109 124.822 205.549C125.814 206.989 127.174 207.709 128.902 207.709ZM150.974 212.221C149.022 212.221 147.63 211.629 146.798 210.445C145.998 209.261 145.598 207.645 145.598 205.597V177.757H151.118V205.885C151.118 206.557 151.246 207.037 151.502 207.325C151.758 207.581 152.03 207.709 152.318 207.709C152.446 207.709 152.558 207.709 152.654 207.709C152.782 207.677 152.958 207.645 153.182 207.613L153.902 211.741C153.582 211.869 153.166 211.981 152.654 212.077C152.174 212.173 151.614 212.221 150.974 212.221ZM165.637 212.221C163.109 212.221 161.269 211.405 160.117 209.773C158.965 208.141 158.389 205.837 158.389 202.861V188.077H163.909V202.141C163.909 204.093 164.197 205.469 164.773 206.269C165.349 207.069 166.277 207.469 167.557 207.469C168.581 207.469 169.477 207.213 170.245 206.701C171.045 206.189 171.893 205.357 172.789 204.205V188.077H178.309V211.645H173.797L173.365 208.189H173.221C172.197 209.405 171.077 210.381 169.861 211.117C168.645 211.853 167.237 212.221 165.637 212.221ZM193.605 212.221C190.885 212.221 188.949 211.437 187.797 209.869C186.677 208.269 186.117 206.205 186.117 203.677V192.445H182.757V188.317L186.405 188.077L187.077 181.645H191.685V188.077H197.685V192.445H191.685V203.677C191.685 206.429 192.789 207.805 194.997 207.805C195.413 207.805 195.845 207.757 196.293 207.661C196.741 207.533 197.125 207.405 197.445 207.277L198.405 211.357C197.765 211.581 197.029 211.773 196.197 211.933C195.397 212.125 194.533 212.221 193.605 212.221ZM202.645 211.645V188.077H208.165V211.645H202.645ZM205.429 183.949C204.437 183.949 203.637 183.661 203.029 183.085C202.421 182.509 202.117 181.741 202.117 180.781C202.117 179.853 202.421 179.101 203.029 178.525C203.637 177.949 204.437 177.661 205.429 177.661C206.421 177.661 207.221 177.949 207.829 178.525C208.437 179.101 208.741 179.853 208.741 180.781C208.741 181.741 208.437 182.509 207.829 183.085C207.221 183.661 206.421 183.949 205.429 183.949ZM224.855 212.221C222.903 212.221 221.079 211.741 219.383 210.781C217.687 209.789 216.311 208.381 215.255 206.557C214.199 204.701 213.671 202.477 213.671 199.885C213.671 197.261 214.199 195.037 215.255 193.213C216.311 191.357 217.687 189.949 219.383 188.989C221.079 187.997 222.903 187.501 224.855 187.501C226.839 187.501 228.679 187.997 230.375 188.989C232.071 189.949 233.447 191.357 234.503 193.213C235.559 195.037 236.087 197.261 236.087 199.885C236.087 202.477 235.559 204.701 234.503 206.557C233.447 208.381 232.071 209.789 230.375 210.781C228.679 211.741 226.839 212.221 224.855 212.221ZM224.855 207.709C226.583 207.709 227.943 206.989 228.935 205.549C229.927 204.109 230.423 202.221 230.423 199.885C230.423 197.517 229.927 195.613 228.935 194.173C227.943 192.733 226.583 192.013 224.855 192.013C223.127 192.013 221.767 192.733 220.775 194.173C219.815 195.613 219.335 197.517 219.335 199.885C219.335 202.221 219.815 204.109 220.775 205.549C221.767 206.989 223.127 207.709 224.855 207.709ZM241.551 211.645V188.077H246.111L246.495 191.245H246.687C247.743 190.221 248.895 189.341 250.143 188.605C251.391 187.869 252.815 187.501 254.415 187.501C256.943 187.501 258.783 188.317 259.935 189.949C261.087 191.581 261.663 193.885 261.663 196.861V211.645H256.143V197.581C256.143 195.629 255.855 194.253 255.279 193.453C254.703 192.653 253.759 192.253 252.447 192.253C251.423 192.253 250.511 192.509 249.711 193.021C248.943 193.501 248.063 194.221 247.071 195.181V211.645H241.551ZM268.41 211.645V188.077H273.93V211.645H268.41ZM271.194 183.949C270.202 183.949 269.402 183.661 268.794 183.085C268.186 182.509 267.882 181.741 267.882 180.781C267.882 179.853 268.186 179.101 268.794 178.525C269.402 177.949 270.202 177.661 271.194 177.661C272.186 177.661 272.986 177.949 273.594 178.525C274.202 179.101 274.506 179.853 274.506 180.781C274.506 181.741 274.202 182.509 273.594 183.085C272.986 183.661 272.186 183.949 271.194 183.949ZM279.101 211.645V208.669L290.237 192.445H280.349V188.077H297.149V191.005L286.061 207.229H297.533V211.645H279.101ZM302.254 211.645V188.077H307.774V211.645H302.254ZM305.038 183.949C304.046 183.949 303.246 183.661 302.638 183.085C302.03 182.509 301.726 181.741 301.726 180.781C301.726 179.853 302.03 179.101 302.638 178.525C303.246 177.949 304.046 177.661 305.038 177.661C306.03 177.661 306.83 177.949 307.438 178.525C308.046 179.101 308.35 179.853 308.35 180.781C308.35 181.741 308.046 182.509 307.438 183.085C306.83 183.661 306.03 183.949 305.038 183.949ZM314.817 211.645V188.077H319.377L319.761 191.245H319.953C321.009 190.221 322.161 189.341 323.409 188.605C324.657 187.869 326.081 187.501 327.681 187.501C330.209 187.501 332.049 188.317 333.201 189.949C334.353 191.581 334.929 193.885 334.929 196.861V211.645H329.409V197.581C329.409 195.629 329.121 194.253 328.545 193.453C327.969 192.653 327.025 192.253 325.713 192.253C324.689 192.253 323.777 192.509 322.977 193.021C322.209 193.501 321.329 194.221 320.337 195.181V211.645H314.817ZM349.884 222.061C348.028 222.061 346.348 221.837 344.844 221.389C343.372 220.941 342.204 220.253 341.34 219.325C340.508 218.429 340.092 217.293 340.092 215.917C340.092 213.965 341.212 212.285 343.452 210.877V210.685C342.844 210.301 342.332 209.789 341.916 209.149C341.532 208.509 341.34 207.709 341.34 206.749C341.34 205.821 341.596 204.989 342.108 204.253C342.652 203.485 343.26 202.861 343.932 202.381V202.189C343.132 201.581 342.412 200.733 341.772 199.645C341.164 198.557 340.86 197.325 340.86 195.949C340.86 194.125 341.292 192.589 342.156 191.341C343.02 190.093 344.156 189.149 345.564 188.509C347.004 187.837 348.54 187.501 350.172 187.501C350.812 187.501 351.42 187.565 351.996 187.693C352.604 187.789 353.148 187.917 353.628 188.077H362.076V192.157H357.756C358.14 192.605 358.46 193.181 358.716 193.885C358.972 194.557 359.1 195.309 359.1 196.141C359.1 197.869 358.7 199.341 357.9 200.557C357.1 201.741 356.028 202.637 354.684 203.245C353.34 203.853 351.836 204.157 350.172 204.157C349.66 204.157 349.132 204.109 348.588 204.013C348.044 203.917 347.5 203.757 346.956 203.533C346.604 203.853 346.316 204.173 346.092 204.493C345.9 204.813 345.804 205.245 345.804 205.789C345.804 206.461 346.076 206.989 346.62 207.373C347.196 207.757 348.204 207.949 349.644 207.949H353.82C356.668 207.949 358.812 208.413 360.252 209.341C361.724 210.237 362.46 211.709 362.46 213.757C362.46 215.293 361.948 216.685 360.924 217.933C359.9 219.213 358.444 220.221 356.556 220.957C354.668 221.693 352.444 222.061 349.884 222.061ZM350.172 200.701C351.292 200.701 352.252 200.285 353.052 199.453C353.852 198.621 354.252 197.453 354.252 195.949C354.252 194.477 353.852 193.341 353.052 192.541C352.284 191.709 351.324 191.293 350.172 191.293C349.02 191.293 348.044 191.693 347.244 192.493C346.444 193.293 346.044 194.445 346.044 195.949C346.044 197.453 346.444 198.621 347.244 199.453C348.044 200.285 349.02 200.701 350.172 200.701ZM350.748 218.461C352.636 218.461 354.172 218.077 355.356 217.309C356.54 216.541 357.132 215.661 357.132 214.669C357.132 213.741 356.764 213.117 356.028 212.797C355.324 212.477 354.3 212.317 352.956 212.317H349.74C348.46 212.317 347.388 212.205 346.524 211.981C345.308 212.909 344.7 213.949 344.7 215.101C344.7 216.157 345.244 216.973 346.332 217.549C347.42 218.157 348.892 218.461 350.748 218.461ZM56.512 272.221C53.888 272.221 51.504 271.597 49.36 270.349C47.216 269.101 45.504 267.277 44.224 264.877C42.976 262.445 42.352 259.501 42.352 256.045C42.352 252.621 42.992 249.693 44.272 247.261C45.584 244.797 47.328 242.925 49.504 241.645C51.68 240.333 54.08 239.677 56.704 239.677C58.688 239.677 60.448 240.077 61.984 240.877C63.52 241.677 64.784 242.605 65.776 243.661L62.8 247.261C62 246.429 61.104 245.773 60.112 245.293C59.152 244.781 58.064 244.525 56.848 244.525C55.152 244.525 53.632 244.989 52.288 245.917C50.976 246.813 49.936 248.109 49.168 249.805C48.432 251.501 48.064 253.533 48.064 255.901C48.064 259.485 48.848 262.301 50.416 264.349C51.984 266.365 54.08 267.373 56.704 267.373C58.112 267.373 59.36 267.085 60.448 266.509C61.536 265.901 62.528 265.117 63.424 264.157L66.4 267.661C65.12 269.133 63.648 270.269 61.984 271.069C60.352 271.837 58.528 272.221 56.512 272.221ZM77.6995 272.221C75.1715 272.221 73.3315 271.405 72.1795 269.773C71.0275 268.141 70.4515 265.837 70.4515 262.861V248.077H75.9715V262.141C75.9715 264.093 76.2595 265.469 76.8355 266.269C77.4115 267.069 78.3395 267.469 79.6195 267.469C80.6435 267.469 81.5395 267.213 82.3075 266.701C83.1075 266.189 83.9555 265.357 84.8515 264.205V248.077H90.3715V271.645H85.8595L85.4275 268.189H85.2835C84.2595 269.405 83.1395 270.381 81.9235 271.117C80.7075 271.853 79.2995 272.221 77.6995 272.221ZM103.939 272.221C102.339 272.221 100.739 271.917 99.1394 271.309C97.5394 270.669 96.1634 269.885 95.0114 268.957L97.6034 265.405C98.6594 266.205 99.7154 266.845 100.771 267.325C101.827 267.805 102.947 268.045 104.131 268.045C105.411 268.045 106.355 267.773 106.963 267.229C107.571 266.685 107.875 266.013 107.875 265.213C107.875 264.541 107.619 263.997 107.107 263.581C106.627 263.133 106.003 262.749 105.235 262.429C104.467 262.077 103.667 261.741 102.835 261.421C101.811 261.037 100.787 260.573 99.7634 260.029C98.7714 259.453 97.9554 258.733 97.3154 257.869C96.6754 256.973 96.3554 255.869 96.3554 254.557C96.3554 252.477 97.1234 250.781 98.6594 249.469C100.195 248.157 102.275 247.501 104.899 247.501C106.563 247.501 108.051 247.789 109.363 248.365C110.675 248.941 111.811 249.597 112.771 250.333L110.227 253.693C109.395 253.085 108.547 252.605 107.683 252.253C106.851 251.869 105.971 251.677 105.043 251.677C103.859 251.677 102.979 251.933 102.403 252.445C101.827 252.925 101.539 253.533 101.539 254.269C101.539 255.197 102.019 255.901 102.979 256.381C103.939 256.861 105.059 257.325 106.339 257.773C107.427 258.157 108.483 258.637 109.507 259.213C110.531 259.757 111.379 260.477 112.051 261.373C112.755 262.269 113.107 263.453 113.107 264.925C113.107 266.941 112.323 268.669 110.755 270.109C109.187 271.517 106.915 272.221 103.939 272.221ZM125.402 272.221C122.682 272.221 120.746 271.437 119.594 269.869C118.474 268.269 117.914 266.205 117.914 263.677V252.445H114.554V248.317L118.202 248.077L118.874 241.645H123.482V248.077H129.482V252.445H123.482V263.677C123.482 266.429 124.586 267.805 126.794 267.805C127.21 267.805 127.642 267.757 128.09 267.661C128.538 267.533 128.922 267.405 129.242 267.277L130.202 271.357C129.562 271.581 128.826 271.773 127.994 271.933C127.194 272.125 126.33 272.221 125.402 272.221ZM143.34 272.221C141.388 272.221 139.564 271.741 137.868 270.781C136.172 269.789 134.796 268.381 133.74 266.557C132.684 264.701 132.156 262.477 132.156 259.885C132.156 257.261 132.684 255.037 133.74 253.213C134.796 251.357 136.172 249.949 137.868 248.989C139.564 247.997 141.388 247.501 143.34 247.501C145.324 247.501 147.164 247.997 148.86 248.989C150.556 249.949 151.932 251.357 152.988 253.213C154.044 255.037 154.572 257.261 154.572 259.885C154.572 262.477 154.044 264.701 152.988 266.557C151.932 268.381 150.556 269.789 148.86 270.781C147.164 271.741 145.324 272.221 143.34 272.221ZM143.34 267.709C145.068 267.709 146.428 266.989 147.42 265.549C148.412 264.109 148.908 262.221 148.908 259.885C148.908 257.517 148.412 255.613 147.42 254.173C146.428 252.733 145.068 252.013 143.34 252.013C141.612 252.013 140.252 252.733 139.26 254.173C138.3 255.613 137.82 257.517 137.82 259.885C137.82 262.221 138.3 264.109 139.26 265.549C140.252 266.989 141.612 267.709 143.34 267.709ZM160.035 271.645V248.077H164.595L164.979 251.293H165.171C166.163 250.237 167.235 249.341 168.387 248.605C169.571 247.869 170.899 247.501 172.371 247.501C174.099 247.501 175.475 247.885 176.499 248.653C177.555 249.389 178.355 250.413 178.899 251.725C180.019 250.509 181.187 249.501 182.403 248.701C183.651 247.901 185.011 247.501 186.483 247.501C188.979 247.501 190.819 248.317 192.003 249.949C193.187 251.581 193.779 253.885 193.779 256.861V271.645H188.211V257.581C188.211 255.629 187.907 254.253 187.299 253.453C186.723 252.653 185.827 252.253 184.611 252.253C183.139 252.253 181.491 253.229 179.667 255.181V271.645H174.147V257.581C174.147 255.629 173.843 254.253 173.235 253.453C172.659 252.653 171.747 252.253 170.499 252.253C169.027 252.253 167.379 253.229 165.555 255.181V271.645H160.035ZM210.568 272.221C208.392 272.221 206.424 271.741 204.664 270.781C202.904 269.789 201.512 268.381 200.488 266.557C199.464 264.701 198.952 262.477 198.952 259.885C198.952 257.325 199.464 255.117 200.488 253.261C201.544 251.405 202.904 249.981 204.568 248.989C206.232 247.997 207.976 247.501 209.8 247.501C211.944 247.501 213.736 247.981 215.176 248.941C216.616 249.869 217.704 251.181 218.44 252.877C219.176 254.541 219.544 256.477 219.544 258.685C219.544 259.837 219.464 260.733 219.304 261.373H204.328C204.584 263.453 205.336 265.069 206.584 266.221C207.832 267.373 209.4 267.949 211.288 267.949C212.312 267.949 213.256 267.805 214.12 267.517C215.016 267.197 215.896 266.765 216.76 266.221L218.632 269.677C217.512 270.413 216.264 271.021 214.888 271.501C213.512 271.981 212.072 272.221 210.568 272.221ZM204.28 257.629H214.744C214.744 255.805 214.344 254.381 213.544 253.357C212.744 252.301 211.544 251.773 209.944 251.773C208.568 251.773 207.336 252.285 206.248 253.309C205.192 254.301 204.536 255.741 204.28 257.629ZM224.817 271.645V248.077H229.377L229.761 252.253H229.953C230.785 250.717 231.793 249.549 232.977 248.749C234.161 247.917 235.377 247.501 236.625 247.501C237.745 247.501 238.641 247.661 239.313 247.981L238.353 252.781C237.937 252.653 237.553 252.557 237.201 252.493C236.849 252.429 236.417 252.397 235.905 252.397C234.977 252.397 234.001 252.765 232.977 253.501C231.953 254.205 231.073 255.453 230.337 257.245V271.645H224.817ZM252.812 271.645V240.253H271.724V244.957H258.38V252.973H269.66V257.677H258.38V266.941H272.204V271.645H252.812ZM278.16 271.645V248.077H282.72L283.104 251.245H283.296C284.352 250.221 285.504 249.341 286.752 248.605C288 247.869 289.424 247.501 291.024 247.501C293.552 247.501 295.392 248.317 296.544 249.949C297.696 251.581 298.272 253.885 298.272 256.861V271.645H292.752V257.581C292.752 255.629 292.464 254.253 291.888 253.453C291.312 252.653 290.368 252.253 289.056 252.253C288.032 252.253 287.12 252.509 286.32 253.021C285.552 253.501 284.672 254.221 283.68 255.181V271.645H278.16ZM313.228 282.061C311.372 282.061 309.692 281.837 308.188 281.389C306.716 280.941 305.548 280.253 304.684 279.325C303.852 278.429 303.436 277.293 303.436 275.917C303.436 273.965 304.556 272.285 306.796 270.877V270.685C306.188 270.301 305.676 269.789 305.26 269.149C304.876 268.509 304.684 267.709 304.684 266.749C304.684 265.821 304.94 264.989 305.452 264.253C305.996 263.485 306.604 262.861 307.276 262.381V262.189C306.476 261.581 305.756 260.733 305.116 259.645C304.508 258.557 304.204 257.325 304.204 255.949C304.204 254.125 304.636 252.589 305.5 251.341C306.364 250.093 307.5 249.149 308.908 248.509C310.348 247.837 311.884 247.501 313.516 247.501C314.156 247.501 314.764 247.565 315.34 247.693C315.948 247.789 316.492 247.917 316.972 248.077H325.42V252.157H321.1C321.484 252.605 321.804 253.181 322.06 253.885C322.316 254.557 322.444 255.309 322.444 256.141C322.444 257.869 322.044 259.341 321.244 260.557C320.444 261.741 319.372 262.637 318.028 263.245C316.684 263.853 315.18 264.157 313.516 264.157C313.004 264.157 312.476 264.109 311.932 264.013C311.388 263.917 310.844 263.757 310.3 263.533C309.948 263.853 309.66 264.173 309.436 264.493C309.244 264.813 309.148 265.245 309.148 265.789C309.148 266.461 309.42 266.989 309.964 267.373C310.54 267.757 311.548 267.949 312.988 267.949H317.164C320.012 267.949 322.156 268.413 323.596 269.341C325.068 270.237 325.804 271.709 325.804 273.757C325.804 275.293 325.292 276.685 324.268 277.933C323.244 279.213 321.788 280.221 319.9 280.957C318.012 281.693 315.788 282.061 313.228 282.061ZM313.516 260.701C314.636 260.701 315.596 260.285 316.396 259.453C317.196 258.621 317.596 257.453 317.596 255.949C317.596 254.477 317.196 253.341 316.396 252.541C315.628 251.709 314.668 251.293 313.516 251.293C312.364 251.293 311.388 251.693 310.588 252.493C309.788 253.293 309.388 254.445 309.388 255.949C309.388 257.453 309.788 258.621 310.588 259.453C311.388 260.285 312.364 260.701 313.516 260.701ZM314.092 278.461C315.98 278.461 317.516 278.077 318.7 277.309C319.884 276.541 320.476 275.661 320.476 274.669C320.476 273.741 320.108 273.117 319.372 272.797C318.668 272.477 317.644 272.317 316.3 272.317H313.084C311.804 272.317 310.732 272.205 309.868 271.981C308.652 272.909 308.044 273.949 308.044 275.101C308.044 276.157 308.588 276.973 309.676 277.549C310.764 278.157 312.236 278.461 314.092 278.461ZM334.825 272.221C332.777 272.221 331.097 271.581 329.785 270.301C328.505 269.021 327.865 267.357 327.865 265.309C327.865 262.781 328.969 260.829 331.177 259.453C333.385 258.045 336.905 257.085 341.737 256.573C341.705 255.325 341.369 254.253 340.729 253.357C340.121 252.429 339.017 251.965 337.417 251.965C336.265 251.965 335.129 252.189 334.009 252.637C332.921 253.085 331.849 253.629 330.793 254.269L328.777 250.573C330.089 249.741 331.561 249.021 333.193 248.413C334.857 247.805 336.617 247.501 338.473 247.501C341.417 247.501 343.609 248.381 345.049 250.141C346.521 251.869 347.257 254.381 347.257 257.677V271.645H342.697L342.313 269.053H342.121C341.065 269.949 339.929 270.701 338.713 271.309C337.529 271.917 336.233 272.221 334.825 272.221ZM336.601 267.901C337.561 267.901 338.425 267.677 339.193 267.229C339.993 266.749 340.841 266.109 341.737 265.309V260.029C338.537 260.445 336.313 261.069 335.065 261.901C333.817 262.701 333.193 263.693 333.193 264.877C333.193 265.933 333.513 266.701 334.153 267.181C334.793 267.661 335.609 267.901 336.601 267.901ZM362.071 282.061C360.215 282.061 358.535 281.837 357.031 281.389C355.559 280.941 354.391 280.253 353.527 279.325C352.695 278.429 352.279 277.293 352.279 275.917C352.279 273.965 353.399 272.285 355.639 270.877V270.685C355.031 270.301 354.519 269.789 354.103 269.149C353.719 268.509 353.527 267.709 353.527 266.749C353.527 265.821 353.783 264.989 354.295 264.253C354.839 263.485 355.447 262.861 356.119 262.381V262.189C355.319 261.581 354.599 260.733 353.959 259.645C353.351 258.557 353.047 257.325 353.047 255.949C353.047 254.125 353.479 252.589 354.343 251.341C355.207 250.093 356.343 249.149 357.751 248.509C359.191 247.837 360.727 247.501 362.359 247.501C362.999 247.501 363.607 247.565 364.183 247.693C364.791 247.789 365.335 247.917 365.815 248.077H374.263V252.157H369.943C370.327 252.605 370.647 253.181 370.903 253.885C371.159 254.557 371.287 255.309 371.287 256.141C371.287 257.869 370.887 259.341 370.087 260.557C369.287 261.741 368.215 262.637 366.871 263.245C365.527 263.853 364.023 264.157 362.359 264.157C361.847 264.157 361.319 264.109 360.775 264.013C360.231 263.917 359.687 263.757 359.143 263.533C358.791 263.853 358.503 264.173 358.279 264.493C358.087 264.813 357.991 265.245 357.991 265.789C357.991 266.461 358.263 266.989 358.807 267.373C359.383 267.757 360.391 267.949 361.831 267.949H366.007C368.855 267.949 370.999 268.413 372.439 269.341C373.911 270.237 374.647 271.709 374.647 273.757C374.647 275.293 374.135 276.685 373.111 277.933C372.087 279.213 370.631 280.221 368.743 280.957C366.855 281.693 364.631 282.061 362.071 282.061ZM362.359 260.701C363.479 260.701 364.439 260.285 365.239 259.453C366.039 258.621 366.439 257.453 366.439 255.949C366.439 254.477 366.039 253.341 365.239 252.541C364.471 251.709 363.511 251.293 362.359 251.293C361.207 251.293 360.231 251.693 359.431 252.493C358.631 253.293 358.231 254.445 358.231 255.949C358.231 257.453 358.631 258.621 359.431 259.453C360.231 260.285 361.207 260.701 362.359 260.701ZM362.935 278.461C364.823 278.461 366.359 278.077 367.543 277.309C368.727 276.541 369.319 275.661 369.319 274.669C369.319 273.741 368.951 273.117 368.215 272.797C367.511 272.477 366.487 272.317 365.143 272.317H361.927C360.647 272.317 359.575 272.205 358.711 271.981C357.495 272.909 356.887 273.949 356.887 275.101C356.887 276.157 357.431 276.973 358.519 277.549C359.607 278.157 361.079 278.461 362.935 278.461ZM388.131 272.221C385.955 272.221 383.987 271.741 382.227 270.781C380.467 269.789 379.075 268.381 378.051 266.557C377.027 264.701 376.515 262.477 376.515 259.885C376.515 257.325 377.027 255.117 378.051 253.261C379.107 251.405 380.467 249.981 382.131 248.989C383.795 247.997 385.539 247.501 387.363 247.501C389.507 247.501 391.299 247.981 392.739 248.941C394.179 249.869 395.267 251.181 396.003 252.877C396.739 254.541 397.107 256.477 397.107 258.685C397.107 259.837 397.027 260.733 396.867 261.373H381.891C382.147 263.453 382.899 265.069 384.147 266.221C385.395 267.373 386.963 267.949 388.851 267.949C389.875 267.949 390.819 267.805 391.683 267.517C392.579 267.197 393.459 266.765 394.323 266.221L396.195 269.677C395.075 270.413 393.827 271.021 392.451 271.501C391.075 271.981 389.635 272.221 388.131 272.221ZM381.843 257.629H392.307C392.307 255.805 391.907 254.381 391.107 253.357C390.307 252.301 389.107 251.773 387.507 251.773C386.131 251.773 384.899 252.285 383.811 253.309C382.755 254.301 382.099 255.741 381.843 257.629ZM402.379 271.645V248.077H406.939L407.323 251.293H407.515C408.507 250.237 409.579 249.341 410.731 248.605C411.915 247.869 413.243 247.501 414.715 247.501C416.443 247.501 417.819 247.885 418.843 248.653C419.899 249.389 420.699 250.413 421.243 251.725C422.363 250.509 423.531 249.501 424.747 248.701C425.995 247.901 427.355 247.501 428.827 247.501C431.323 247.501 433.163 248.317 434.347 249.949C435.531 251.581 436.123 253.885 436.123 256.861V271.645H430.555V257.581C430.555 255.629 430.251 254.253 429.643 253.453C429.067 252.653 428.171 252.253 426.955 252.253C425.483 252.253 423.835 253.229 422.011 255.181V271.645H416.491V257.581C416.491 255.629 416.187 254.253 415.579 253.453C415.003 252.653 414.091 252.253 412.843 252.253C411.371 252.253 409.723 253.229 407.899 255.181V271.645H402.379ZM452.912 272.221C450.736 272.221 448.768 271.741 447.008 270.781C445.248 269.789 443.856 268.381 442.832 266.557C441.808 264.701 441.296 262.477 441.296 259.885C441.296 257.325 441.808 255.117 442.832 253.261C443.888 251.405 445.248 249.981 446.912 248.989C448.576 247.997 450.32 247.501 452.144 247.501C454.288 247.501 456.08 247.981 457.52 248.941C458.96 249.869 460.048 251.181 460.784 252.877C461.52 254.541 461.888 256.477 461.888 258.685C461.888 259.837 461.808 260.733 461.648 261.373H446.672C446.928 263.453 447.68 265.069 448.928 266.221C450.176 267.373 451.744 267.949 453.632 267.949C454.656 267.949 455.6 267.805 456.464 267.517C457.36 267.197 458.24 266.765 459.104 266.221L460.976 269.677C459.856 270.413 458.608 271.021 457.232 271.501C455.856 271.981 454.416 272.221 452.912 272.221ZM446.624 257.629H457.088C457.088 255.805 456.688 254.381 455.888 253.357C455.088 252.301 453.888 251.773 452.288 251.773C450.912 251.773 449.68 252.285 448.592 253.309C447.536 254.301 446.88 255.741 446.624 257.629ZM467.16 271.645V248.077H471.72L472.104 251.245H472.296C473.352 250.221 474.504 249.341 475.752 248.605C477 247.869 478.424 247.501 480.024 247.501C482.552 247.501 484.392 248.317 485.544 249.949C486.696 251.581 487.272 253.885 487.272 256.861V271.645H481.752V257.581C481.752 255.629 481.464 254.253 480.888 253.453C480.312 252.653 479.368 252.253 478.056 252.253C477.032 252.253 476.12 252.509 475.32 253.021C474.552 253.501 473.672 254.221 472.68 255.181V271.645H467.16ZM502.324 272.221C499.604 272.221 497.668 271.437 496.516 269.869C495.396 268.269 494.836 266.205 494.836 263.677V252.445H491.476V248.317L495.124 248.077L495.796 241.645H500.404V248.077H506.404V252.445H500.404V263.677C500.404 266.429 501.508 267.805 503.716 267.805C504.132 267.805 504.564 267.757 505.012 267.661C505.46 267.533 505.844 267.405 506.164 267.277L507.124 271.357C506.484 271.581 505.748 271.773 504.916 271.933C504.116 272.125 503.252 272.221 502.324 272.221Z" fill="white"/>
<path d="M696.765 270.666C730.473 270.666 757.798 243.311 757.798 209.567C757.798 175.824 730.473 148.469 696.765 148.469C663.058 148.469 635.732 175.824 635.732 209.567C635.732 243.311 663.058 270.666 696.765 270.666Z" fill="white"/>
<path d="M696.765 270.666C730.473 270.666 757.798 243.311 757.798 209.567C757.798 175.824 730.473 148.469 696.765 148.469C663.058 148.469 635.732 175.824 635.732 209.567C635.732 243.311 663.058 270.666 696.765 270.666Z" fill="url(#paint1_linear_49_774)"/>
<path d="M682.257 279.996C682.681 307.429 660.809 330.012 633.406 330.436C606.002 330.86 583.443 308.965 583.02 281.532C582.596 254.098 604.468 231.516 631.871 231.092C659.275 230.667 681.834 252.562 682.257 279.996Z" fill="url(#paint2_radial_49_774)"/>
<path d="M822.263 259.019C821.805 260.356 820.661 261.585 818.582 262.619C816.498 263.655 813.603 264.427 809.917 264.89C802.553 265.818 792.373 265.478 780.056 263.917C755.448 260.798 722.628 252.844 687.449 240.779C652.271 228.714 621.474 214.848 600.125 202.205C589.44 195.877 581.19 189.896 575.941 184.643C573.314 182.014 571.5 179.627 570.488 177.529C569.48 175.436 569.329 173.763 569.786 172.426C570.244 171.089 571.388 169.86 573.467 168.826C575.551 167.789 578.446 167.018 582.132 166.554C589.496 165.627 599.676 165.967 611.993 167.528C636.601 170.647 669.421 178.6 704.6 190.665C739.778 202.731 770.575 216.596 791.924 229.239C802.609 235.567 810.859 241.549 816.108 246.802C818.735 249.431 820.55 251.817 821.561 253.916C822.569 256.009 822.721 257.682 822.263 259.019Z" stroke="url(#paint3_linear_49_774)" stroke-width="0.999783"/>
<path d="M759.483 164.375C750.786 155.381 736.454 155.149 727.471 163.856C718.488 172.563 718.256 186.912 726.953 195.905C735.649 204.898 749.982 205.131 758.965 196.424C767.948 187.717 768.18 173.368 759.483 164.375Z" fill="url(#paint4_radial_49_774)"/>
<defs>
<radialGradient id="paint0_radial_49_774" cx="0" cy="0" r="1" gradientUnits="userSpaceOnUse" gradientTransform="translate(425 185.645) rotate(23.5635) scale(463.661 3138.32)">
<stop stop-color="#888DFF"/>
<stop offset="0.82063" stop-color="#D693FF" stop-opacity="0"/>
</radialGradient>
<linearGradient id="paint1_linear_49_774" x1="696.765" y1="148.469" x2="696.765" y2="270.666" gradientUnits="userSpaceOnUse">
<stop stop-color="#FD91FF"/>
<stop offset="0.34375" stop-color="#A0A8FF"/>
<stop offset="0.947005" stop-color="#C9F2FF"/>
</linearGradient>
<radialGradient id="paint2_radial_49_774" cx="0" cy="0" r="1" gradientUnits="userSpaceOnUse" gradientTransform="translate(614.018 295.915) rotate(-43.746) scale(76.5054 98.5954)">
<stop offset="0.581217" stop-color="#2B152F"/>
<stop offset="0.753744" stop-color="#413686"/>
<stop offset="0.963759" stop-color="#5CB1E0"/>
</radialGradient>
<linearGradient id="paint3_linear_49_774" x1="699.441" y1="239.367" x2="712.702" y2="201.098" gradientUnits="userSpaceOnUse">
<stop stop-color="#F3FCFF"/>
<stop offset="0.47974" stop-color="#654BAE"/>
<stop offset="1" stop-color="#303261" stop-opacity="0"/>
</linearGradient>
<radialGradient id="paint4_radial_49_774" cx="0" cy="0" r="1" gradientUnits="userSpaceOnUse" gradientTransform="translate(772.242 167.332) rotate(148.426) scale(53.6878 53.7163)">
<stop offset="0.357721" stop-color="#171717"/>
<stop offset="0.703125" stop-color="#261C33"/>
<stop offset="0.866261" stop-color="#582A60"/>
</radialGradient>
</defs>
</svg>
