<svg width="52" height="53" viewBox="0 0 52 53" fill="none" xmlns="http://www.w3.org/2000/svg">
<g clip-path="url(#clip0_49_978)">
<path d="M36.5948 20.23C35.8248 20.58 34.9948 20.81 34.1348 20.92C35.0148 20.39 35.6948 19.55 36.0148 18.54C35.1848 19.04 34.2648 19.39 33.2948 19.59C32.5048 18.73 31.3948 18.23 30.1348 18.23C27.7848 18.23 25.8648 20.15 25.8648 22.52C25.8648 22.86 25.9048 23.19 25.9748 23.5C22.4148 23.32 19.2448 21.61 17.1348 19.02C16.7648 19.65 16.5548 20.39 16.5548 21.17C16.5548 22.66 17.3048 23.98 18.4648 24.73C17.7548 24.73 17.0948 24.53 16.5148 24.23V24.26C16.5148 26.34 17.9948 28.08 19.9548 28.47C19.3256 28.6422 18.6649 28.6661 18.0248 28.54C18.2965 29.3924 18.8284 30.1384 19.5459 30.6729C20.2633 31.2074 21.1303 31.5036 22.0248 31.52C20.5085 32.7204 18.6288 33.3693 16.6948 33.36C16.3548 33.36 16.0148 33.34 15.6748 33.3C17.5748 34.52 19.8348 35.23 22.2548 35.23C30.1348 35.23 34.4648 28.69 34.4648 23.02C34.4648 22.83 34.4648 22.65 34.4548 22.46C35.2948 21.86 36.0148 21.1 36.5948 20.23Z" fill="white"/>
<path d="M39.6751 2.08789H12.6751C6.5216 2.08789 1.5332 7.07629 1.5332 13.2298V40.2298C1.5332 46.3833 6.5216 51.3717 12.6751 51.3717H39.6751C45.8286 51.3717 50.817 46.3833 50.817 40.2298V13.2298C50.817 7.07629 45.8286 2.08789 39.6751 2.08789Z" stroke="#49587B" stroke-width="1.71624"/>
</g>
<defs>
<clipPath id="clip0_49_978">
<rect width="52" height="52" fill="white" transform="translate(0 0.5)"/>
</clipPath>
</defs>
</svg>
